<svg id="capcraft-logo" viewBox="0 0 474 372" xmlns="http://www.w3.org/2000/svg" fill="#dddddd">
<path fill-rule="evenodd" clip-rule="evenodd" d="M78.061 1.069C65.397 2.743 50.48 8.536 39.14 16.185C31.862 21.093 17.908 35.948 13.414 43.569C8.563 51.796 4.678 61.227 2.26 70.647C0.633 76.982 0.5 85.705 0.5 186C0.5 286.295 0.633 295.018 2.26 301.353C6.893 319.4 14.04 331.988 27.026 344.974C37.017 354.965 45.421 360.645 57.129 365.32C73.229 371.748 65.53 371.371 188.5 371.762C265.253 372.006 303.474 371.775 309.951 371.026C330.69 368.629 347.673 360.288 362.98 344.98C374.047 333.914 380.398 323.905 384.9 310.438C388.801 298.768 391.739 274.871 389.25 275.056C388.837 275.087 386.54 277.594 384.145 280.628C374.579 292.742 355.279 304.719 338 309.264L329.5 311.5H233H136.5L128 309.264C96.424 300.958 71.605 276.323 62.755 244.5C60.591 236.716 60.531 235.137 60.531 186C60.531 136.662 60.582 135.316 62.781 127.5C71.881 95.153 95.911 71.3 128 62.762L136.5 60.5H233H329.5L338 62.736C355.047 67.22 373.512 78.587 383.5 90.747C386.25 94.095 388.905 96.871 389.4 96.917C390.663 97.033 389.296 78.087 387.475 70.235C383.579 53.437 375.976 40.028 362.974 27.026C350.172 14.224 337.879 7.176 319.871 2.313C314.04 0.738002 303.801 0.576002 199 0.405002C136.025 0.302002 81.602 0.601002 78.061 1.069ZM436.75 95.365L400 115.489V186V256.511L436.75 276.635L473.5 296.759L473.758 241.379C473.901 210.921 473.901 161.079 473.758 130.621L473.5 75.241L436.75 95.365ZM111 104V125H121H131V114V103H142H153V93V83H132H111V104ZM321 93V103H332H343V114V125H353H363V104V83H342H321V93ZM217 85.435C195.684 89.896 177.833 99.947 162.5 116.12C150.613 128.658 142.381 143.294 137.82 160C135.805 167.381 135.5 170.803 135.5 186C135.5 206.768 137.122 214.403 144.952 230.5C150.759 242.439 157.109 251.037 167.107 260.5C179.679 272.398 194.304 280.622 211 285.18C218.381 287.195 221.803 287.5 237 287.5C252.197 287.5 255.619 287.195 263 285.18C279.696 280.622 294.321 272.398 306.893 260.5C316.891 251.037 323.241 242.439 329.048 230.5C336.878 214.403 338.5 206.768 338.5 186C338.5 165.232 336.878 157.597 329.048 141.5C323.241 129.561 316.891 120.963 306.893 111.5C294.468 99.74 279.759 91.419 263.5 86.95C253.324 84.154 227.192 83.302 217 85.435ZM258.835 122.255C269.317 125.976 276.419 130.486 284.466 138.534C292.468 146.535 296.969 153.597 300.802 164.165C303.201 170.78 303.464 172.874 303.481 185.5C303.497 197.223 303.139 200.639 301.282 206.5C294.937 226.527 277.527 243.937 257.5 250.282C251.639 252.139 248.223 252.497 236.5 252.481C223.874 252.464 221.78 252.201 215.165 249.802C204.597 245.969 197.535 241.468 189.534 233.466C176.521 220.454 170.936 207.583 170.237 189C169.726 175.408 171.31 167.184 176.491 156.528C183.167 142.796 193.81 132.16 207.566 125.472C218.369 120.221 224.598 119.008 239 119.353C249.423 119.602 252.719 120.084 258.835 122.255ZM360.776 136.834L343.053 146.5V186V225.5L360.776 235.166L378.5 244.831L378.765 215.416C378.911 199.237 378.911 172.763 378.765 156.584L378.5 127.169L360.776 136.834ZM224.634 136.586C206.806 140.902 191.783 156.092 187.54 174.093C178.813 211.114 211.886 244.187 248.907 235.46C267.151 231.16 282.16 216.151 286.46 197.907C295.219 160.75 261.788 127.593 224.634 136.586ZM230.864 159.711C234.941 162.698 237.182 167.781 236.665 172.864C235.834 181.022 229.204 186.486 221.136 185.665C206.814 184.206 203.287 165.423 216.071 158.695C220.294 156.473 227.081 156.939 230.864 159.711ZM111 268V289H132H153V279V269H142H131V258V247H121H111V268ZM343 258V269H332H321V279V289H342H363V268V247H353H343V258Z"/>
</svg>
